<?xml version="1.0" encoding="utf-8"?>
<!-- created with bpmn-js / http://bpmn.io -->
<!DOCTYPE svg PUBLIC "-//W3C//DTD SVG 1.1//EN" "http://www.w3.org/Graphics/SVG/1.1/DTD/svg11.dtd">
<svg xmlns="http://www.w3.org/2000/svg" xmlns:xlink="http://www.w3.org/1999/xlink" width="889" height="986" viewBox="380 45 889 986" version="1.1"><defs><marker viewBox="0 0 20 20" markerWidth="10" markerHeight="10" orient="auto" refX="11" refY="10" id="markerSihwghe869"><path d="M 1 5 L 11 10 L 1 15 Z" fill="#000000" style="stroke-width: 1px; stroke-linecap: round; stroke-dasharray: 10000px, 1px;"/></marker><marker viewBox="0 0 20 20" markerWidth="20" markerHeight="20" orient="auto" refX="6" refY="6" id="markerSihwghe86b"><circle cx="6" cy="6" r="3.5" style="stroke-width: 1px; stroke-linecap: round; stroke-dasharray: 10000px, 1px;" fill="#ffffff" stroke="#000000"/></marker><marker viewBox="0 0 20 20" markerWidth="20" markerHeight="20" orient="auto" refX="8.5" refY="5" id="markerSihwghe86d"><path d="m 1 5 l 0 -3 l 7 3 l -7 3 z" fill="#ffffff" stroke="#000000" style="stroke-width: 1px; stroke-linecap: butt; stroke-dasharray: 10000px, 1px;"/></marker><marker viewBox="0 0 20 20" markerWidth="10" markerHeight="10" orient="auto" refX="11" refY="10" id="markerSihwghe86f"><path d="M 1 5 L 11 10 L 1 15" fill="#ffffff" stroke="#000000" style="stroke-width: 1px; stroke-linecap: round; stroke-dasharray: 10000px, 1px;"/></marker><marker viewBox="0 0 20 20" markerWidth="10" markerHeight="10" orient="auto" refX="-1" refY="10" id="markerSihwghe86h"><path d="M 0 10 L 8 6 L 16 10 L 8 14 Z" fill="#ffffff" stroke="#000000" style="stroke-width: 1px; stroke-linecap: round; stroke-dasharray: 10000px, 1px;"/></marker><marker viewBox="0 0 20 20" markerWidth="10" markerHeight="10" orient="auto" refX="-5" refY="10" id="markerSihwghe86j"><path d="M 1 4 L 5 16" fill="#000000" stroke="#000000" style="stroke-width: 1px; stroke-linecap: round; stroke-dasharray: 10000px, 1px;"/></marker></defs><g class="djs-group" xmlns="http://www.w3.org/2000/svg"><g data-element-id="Participant_08wfwub" class="djs-element djs-shape" transform="matrix(1,0,0,1,386,51)" style="display: block;"><g class="djs-visual"><rect x="0" y="0" width="872" height="301" rx="0" ry="0" stroke="#000000" fill="#ffffff" style="stroke-width: 2px;"></rect><polyline points="30,0 30,301 " fill="none" stroke="#000000" style="stroke-width: 2px;"></polyline><text class=" djs-label" transform="matrix(0,-1,1,0,0,301)" style="font-family: Arial, sans-serif; font-size: 12px;"><tspan x="137.5" y="18.5">Data</tspan></text></g><rect x="0" y="0" width="872" height="301" fill="none" stroke="#ffffff" style="stroke-opacity: 0; stroke-width: 15px;" class="djs-hit"></rect><rect x="-6" y="-6" width="884" height="313" fill="none" class="djs-outline"></rect></g><g class="djs-children"><g class="djs-group"><g data-element-id="StartEvent_14y5fw2" transform="matrix(1,0,0,1,459.2919,135)" class="djs-element djs-shape" style="display: block;"><g class="djs-visual"><circle cx="18" cy="18" r="18" stroke="#000000" fill="#ffffff" style="stroke-width: 2px;"></circle></g><rect x="0" y="0" width="36" height="36" fill="none" stroke="#ffffff" style="stroke-opacity: 0; stroke-width: 15px;" class="djs-hit"></rect><rect x="-6" y="-6" width="48" height="48" fill="none" class="djs-outline"></rect></g></g><g class="djs-group"><g data-element-id="Task_1ghb8zl" class="djs-element djs-shape" transform="matrix(1,0,0,1,564.479,112.5509)" style="display: block;"><g class="djs-visual"><rect x="0" y="0" width="100" height="80" rx="10" ry="10" stroke="#000000" fill="#ffffff" style="stroke-width: 2px;"></rect><text class=" djs-label" style="font-family: Arial, sans-serif; font-size: 12px;"><tspan x="18" y="43.5">Gather data</tspan></text></g><rect x="0" y="0" width="100" height="80" fill="none" stroke="#ffffff" style="stroke-opacity: 0; stroke-width: 15px;" class="djs-hit"></rect><rect x="-6" y="-6" width="112" height="92" fill="none" class="djs-outline"></rect></g></g><g class="djs-group"><g data-element-id="ComplexGateway_07xwgr8" transform="matrix(1,0,0,1,715.9755,128)" class="djs-element djs-shape" style="display: block;"><g class="djs-visual"><polygon points="25,0,50,25,25,50,0,25" stroke="#000000" fill="#ffffff" style="stroke-width: 2px;"></polygon><path d="m 23,13 0,7.116788321167883 -5.018248175182482,-5.018248175182482 -3.102189781021898,3.102189781021898 5.018248175182482,5.018248175182482 -7.116788321167883,0 0,4.37956204379562 7.116788321167883,0  -5.018248175182482,5.018248175182482 l 3.102189781021898,3.102189781021898 5.018248175182482,-5.018248175182482 0,7.116788321167883 4.37956204379562,0 0,-7.116788321167883 5.018248175182482,5.018248175182482 3.102189781021898,-3.102189781021898 -5.018248175182482,-5.018248175182482 7.116788321167883,0 0,-4.37956204379562 -7.116788321167883,0 5.018248175182482,-5.018248175182482 -3.102189781021898,-3.102189781021898 -5.018248175182482,5.018248175182482 0,-7.116788321167883 -4.37956204379562,0 z" fill="#000000" stroke="#000000" style="stroke-width: 1px;"></path></g><rect x="0" y="0" width="50" height="50" fill="none" stroke="#ffffff" style="stroke-opacity: 0; stroke-width: 15px;" class="djs-hit"></rect><rect x="-6" y="-6" width="62" height="62" fill="none" class="djs-outline"></rect></g></g><g class="djs-group"><g data-element-id="Task_1e7vgj7" class="djs-element djs-shape" transform="matrix(1,0,0,1,913.9755,55.1577)" style="display: block;"><g class="djs-visual"><rect x="0" y="0" width="100" height="80" rx="10" ry="10" stroke="#000000" fill="#ffffff" style="stroke-width: 2px;"></rect><text class=" djs-label" style="font-family: Arial, sans-serif; font-size: 12px;"><tspan x="24" y="36.5">Conect to </tspan><tspan x="23" y="50.5">Facebook </tspan></text></g><rect x="0" y="0" width="100" height="80" fill="none" stroke="#ffffff" style="stroke-opacity: 0; stroke-width: 15px;" class="djs-hit"></rect><rect x="-6" y="-6" width="112" height="92" fill="none" class="djs-outline"></rect></g></g><g class="djs-group"><g data-element-id="Task_0si8aav" class="djs-element djs-shape" transform="matrix(1,0,0,1,914,155.1577)" style="display: block;"><g class="djs-visual"><rect x="0" y="0" width="100" height="80" rx="10" ry="10" stroke="#000000" fill="#ffffff" style="stroke-width: 2px;"></rect><text class=" djs-label" style="font-family: Arial, sans-serif; font-size: 12px;"><tspan x="20.5" y="36.5">Connect to </tspan><tspan x="32" y="50.5">Twitter </tspan></text></g><rect x="0" y="0" width="100" height="80" fill="none" stroke="#ffffff" style="stroke-opacity: 0; stroke-width: 15px;" class="djs-hit"></rect><rect x="-6" y="-6" width="112" height="92" fill="none" class="djs-outline"></rect></g></g><g class="djs-group"><g data-element-id="ExclusiveGateway_0abxrx4" transform="matrix(1,0,0,1,1106.9755,137)" class="djs-element djs-shape" style="display: block;"><g class="djs-visual"><polygon points="25,0,50,25,25,50,0,25" stroke="#000000" fill="#ffffff" style="stroke-width: 2px;"></polygon><path d="m 16,15 7.42857142857143,9.714285714285715 -7.42857142857143,9.714285714285715 3.428571428571429,0 5.714285714285715,-7.464228571428572 5.714285714285715,7.464228571428572 3.428571428571429,0 -7.42857142857143,-9.714285714285715 7.42857142857143,-9.714285714285715 -3.428571428571429,0 -5.714285714285715,7.464228571428572 -5.714285714285715,-7.464228571428572 -3.428571428571429,0 z" fill="#000000" stroke="#000000" style="stroke-width: 1px;"></path></g><rect x="0" y="0" width="50" height="50" fill="none" stroke="#ffffff" style="stroke-opacity: 0; stroke-width: 15px;" class="djs-hit"></rect><rect x="-6" y="-6" width="62" height="62" fill="none" class="djs-outline"></rect></g></g><g class="djs-group"><g data-element-id="Task_0f9y1by" class="djs-element djs-shape" transform="matrix(1,0,0,1,990.9755,246.1577)" style="display: block;"><g class="djs-visual"><rect x="0" y="0" width="100" height="80" rx="10" ry="10" stroke="#000000" fill="#ffffff" style="stroke-width: 2px;"></rect><text class=" djs-label" style="font-family: Arial, sans-serif; font-size: 12px;"><tspan x="5.5" y="43.5">Preprocess data</tspan></text></g><rect x="0" y="0" width="100" height="80" fill="none" stroke="#ffffff" style="stroke-opacity: 0; stroke-width: 15px;" class="djs-hit"></rect><rect x="-6" y="-6" width="112" height="92" fill="none" class="djs-outline"></rect></g></g><g class="djs-group"><g data-element-id="EndEvent_0ll5cne" transform="matrix(1,0,0,1,1198.8311,296.1578)" class="djs-element djs-shape" style="display: block;"><g class="djs-visual"><circle cx="18" cy="18" r="18" stroke="#000000" fill="#ffffff" style="stroke-width: 4px;"></circle></g><rect x="0" y="0" width="36" height="36" fill="none" stroke="#ffffff" style="stroke-opacity: 0; stroke-width: 15px;" class="djs-hit"></rect><rect x="-6" y="-6" width="48" height="48" fill="none" class="djs-outline"></rect></g></g><g class="djs-group"><g data-element-id="DataObjectReference_1vob8v6" transform="matrix(1,0,0,1,776.479,260.5509)" class="djs-element djs-shape" style="display: block;"><g class="djs-visual"><path d="m 0,0 28.23529411764706,0 7.058823529411765,8.196721311475411 0,40.98360655737705 -35.294117647058826,0 0,-49.18032786885246 28.23529411764706,0 0,8.196721311475411 7.058823529411765,0" fill="#ffffff" stroke="#000000" style="stroke-width: 2px;"></path></g><rect x="0" y="0" width="36" height="50" fill="none" stroke="#ffffff" style="stroke-opacity: 0; stroke-width: 15px;" class="djs-hit"></rect><rect x="-6" y="-6" width="48" height="62" fill="none" class="djs-outline"></rect></g></g><g class="djs-group"><g data-element-id="DataInputAssociation_1jlhxeq" class="djs-element djs-connection" style="display: block;"><g class="djs-visual"><polyline points="783,311 683,534 " fill="none" stroke="#000000" style="stroke-width: 2px; stroke-dasharray: 1px, 6px; stroke-linecap: round; stroke-linejoin: round; marker-end: url(#markerSihwghe86f);"></polyline></g><polyline points="783,311 683,534 " fill="none" stroke="#ffffff" style="stroke-opacity: 0; stroke-width: 15px;" class="djs-hit"></polyline><rect x="677" y="305" width="112" height="235" fill="none" class="djs-outline"></rect></g></g><g class="djs-group"><g data-element-id="SequenceFlow_0z34ukp" class="djs-element djs-connection" style="display: block;"><g class="djs-visual"><path d="m  495,153L564,153 " fill="none" stroke="#000000" style="stroke-width: 2px; stroke-linejoin: round; marker-end: url(#markerSihwghe869);"></path></g><polyline points="495,153 564,153 " fill="none" stroke="#ffffff" style="stroke-opacity: 0; stroke-width: 15px;" class="djs-hit"></polyline><rect x="489" y="147" width="81" height="12" fill="none" class="djs-outline"></rect></g></g><g class="djs-group"><g data-element-id="SequenceFlow_0z34ukp_label" class="djs-element djs-shape" transform="matrix(1,0,0,1,527.5,143)" style="display: none;"><g class="djs-visual"><text class=" djs-label" style="font-family: Arial, sans-serif; font-size: 11px;"><tspan x="45" y="0"></tspan></text></g><rect x="0" y="0" width="90" height="20" fill="none" stroke="#ffffff" style="stroke-opacity: 0; stroke-width: 15px;" class="djs-hit"></rect><rect x="-6" y="-6" width="102" height="32" fill="none" class="djs-outline"></rect></g></g><g class="djs-group"><g data-element-id="StartEvent_14y5fw2_label" class="djs-element djs-shape" transform="matrix(1,0,0,1,432.2919,171)" style="display: none;"><g class="djs-visual"><text class=" djs-label" style="font-family: Arial, sans-serif; font-size: 11px;"><tspan x="45" y="0"></tspan></text></g><rect x="0" y="0" width="90" height="20" fill="none" stroke="#ffffff" style="stroke-opacity: 0; stroke-width: 15px;" class="djs-hit"></rect><rect x="-6" y="-6" width="102" height="32" fill="none" class="djs-outline"></rect></g></g><g class="djs-group"><g data-element-id="SequenceFlow_11o1ks1" class="djs-element djs-connection" style="display: block;"><g class="djs-visual"><path d="m  664,153L716,153 " fill="none" stroke="#000000" style="stroke-width: 2px; stroke-linejoin: round; marker-end: url(#markerSihwghe869);"></path></g><polyline points="664,153 716,153 " fill="none" stroke="#ffffff" style="stroke-opacity: 0; stroke-width: 15px;" class="djs-hit"></polyline><rect x="658" y="147" width="64" height="12" fill="none" class="djs-outline"></rect></g></g><g class="djs-group"><g data-element-id="SequenceFlow_11o1ks1_label" class="djs-element djs-shape" transform="matrix(1,0,0,1,729.5,143)" style="display: none;"><g class="djs-visual"><text class=" djs-label" style="font-family: Arial, sans-serif; font-size: 11px;"><tspan x="45" y="0"></tspan></text></g><rect x="0" y="0" width="90" height="20" fill="none" stroke="#ffffff" style="stroke-opacity: 0; stroke-width: 15px;" class="djs-hit"></rect><rect x="-6" y="-6" width="102" height="32" fill="none" class="djs-outline"></rect></g></g><g class="djs-group"><g data-element-id="ComplexGateway_07xwgr8_label" class="djs-element djs-shape" transform="matrix(1,0,0,1,695.9755,178)" style="display: none;"><g class="djs-visual"><text class=" djs-label" style="font-family: Arial, sans-serif; font-size: 11px;"><tspan x="45" y="0"></tspan></text></g><rect x="0" y="0" width="90" height="20" fill="none" stroke="#ffffff" style="stroke-opacity: 0; stroke-width: 15px;" class="djs-hit"></rect><rect x="-6" y="-6" width="102" height="32" fill="none" class="djs-outline"></rect></g></g><g class="djs-group"><g data-element-id="SequenceFlow_13wtv7i" class="djs-element djs-connection" style="display: block;"><g class="djs-visual"><path d="m  741,128L741,95 L914,95 " fill="none" stroke="#000000" style="stroke-width: 2px; stroke-linejoin: round; marker-end: url(#markerSihwghe869);"></path></g><polyline points="741,128 741,95 914,95 " fill="none" stroke="#ffffff" style="stroke-opacity: 0; stroke-width: 15px;" class="djs-hit"></polyline><rect x="735" y="89" width="185" height="45" fill="none" class="djs-outline"></rect></g></g><g class="djs-group"><g data-element-id="SequenceFlow_13wtv7i_label" class="djs-element djs-shape" transform="matrix(1,0,0,1,731,116.5)" style="display: none;"><g class="djs-visual"><text class=" djs-label" style="font-family: Arial, sans-serif; font-size: 11px;"><tspan x="45" y="0"></tspan></text></g><rect x="0" y="0" width="90" height="20" fill="none" stroke="#ffffff" style="stroke-opacity: 0; stroke-width: 15px;" class="djs-hit"></rect><rect x="-6" y="-6" width="102" height="32" fill="none" class="djs-outline"></rect></g></g><g class="djs-group"><g data-element-id="SequenceFlow_0t7pesm" class="djs-element djs-connection" style="display: block;"><g class="djs-visual"><path d="m  766,153L840,153 L840,195 L914,195 " fill="none" stroke="#000000" style="stroke-width: 2px; stroke-linejoin: round; marker-end: url(#markerSihwghe869);"></path></g><polyline points="766,153 840,153 840,195 914,195 " fill="none" stroke="#ffffff" style="stroke-opacity: 0; stroke-width: 15px;" class="djs-hit"></polyline><rect x="760" y="147" width="160" height="54" fill="none" class="djs-outline"></rect></g></g><g class="djs-group"><g data-element-id="SequenceFlow_0t7pesm_label" class="djs-element djs-shape" transform="matrix(1,0,0,1,731,168)" style="display: none;"><g class="djs-visual"><text class=" djs-label" style="font-family: Arial, sans-serif; font-size: 11px;"><tspan x="45" y="0"></tspan></text></g><rect x="0" y="0" width="90" height="20" fill="none" stroke="#ffffff" style="stroke-opacity: 0; stroke-width: 15px;" class="djs-hit"></rect><rect x="-6" y="-6" width="102" height="32" fill="none" class="djs-outline"></rect></g></g><g class="djs-group"><g data-element-id="SequenceFlow_1t09agf" class="djs-element djs-connection" style="display: block;"><g class="djs-visual"><path d="m  1014,95L1132,95 L1132,137 " fill="none" stroke="#000000" style="stroke-width: 2px; stroke-linejoin: round; marker-end: url(#markerSihwghe869);"></path></g><polyline points="1014,95 1132,95 1132,137 " fill="none" stroke="#ffffff" style="stroke-opacity: 0; stroke-width: 15px;" class="djs-hit"></polyline><rect x="1008" y="89" width="130" height="54" fill="none" class="djs-outline"></rect></g></g><g class="djs-group"><g data-element-id="SequenceFlow_1t09agf_label" class="djs-element djs-shape" transform="matrix(1,0,0,1,1003.5,85)" style="display: none;"><g class="djs-visual"><text class=" djs-label" style="font-family: Arial, sans-serif; font-size: 11px;"><tspan x="45" y="0"></tspan></text></g><rect x="0" y="0" width="90" height="20" fill="none" stroke="#ffffff" style="stroke-opacity: 0; stroke-width: 15px;" class="djs-hit"></rect><rect x="-6" y="-6" width="102" height="32" fill="none" class="djs-outline"></rect></g></g><g class="djs-group"><g data-element-id="SequenceFlow_13eyc7l" class="djs-element djs-connection" style="display: block;"><g class="djs-visual"><path d="m  1014,195L1036,195 L1036,162 L1107,162 " fill="none" stroke="#000000" style="stroke-width: 2px; stroke-linejoin: round; marker-end: url(#markerSihwghe869);"></path></g><polyline points="1014,195 1036,195 1036,162 1107,162 " fill="none" stroke="#ffffff" style="stroke-opacity: 0; stroke-width: 15px;" class="djs-hit"></polyline><rect x="1008" y="156" width="105" height="45" fill="none" class="djs-outline"></rect></g></g><g class="djs-group"><g data-element-id="SequenceFlow_13eyc7l_label" class="djs-element djs-shape" transform="matrix(1,0,0,1,991,164)" style="display: none;"><g class="djs-visual"><text class=" djs-label" style="font-family: Arial, sans-serif; font-size: 11px;"><tspan x="45" y="0"></tspan></text></g><rect x="0" y="0" width="90" height="20" fill="none" stroke="#ffffff" style="stroke-opacity: 0; stroke-width: 15px;" class="djs-hit"></rect><rect x="-6" y="-6" width="102" height="32" fill="none" class="djs-outline"></rect></g></g><g class="djs-group"><g data-element-id="ExclusiveGateway_0abxrx4_label" class="djs-element djs-shape" transform="matrix(1,0,0,1,1086.9755,187)" style="display: none;"><g class="djs-visual"><text class=" djs-label" style="font-family: Arial, sans-serif; font-size: 11px;"><tspan x="45" y="0"></tspan></text></g><rect x="0" y="0" width="90" height="20" fill="none" stroke="#ffffff" style="stroke-opacity: 0; stroke-width: 15px;" class="djs-hit"></rect><rect x="-6" y="-6" width="102" height="32" fill="none" class="djs-outline"></rect></g></g><g class="djs-group"><g data-element-id="SequenceFlow_05at2kf" class="djs-element djs-connection" style="display: block;"><g class="djs-visual"><path d="m  1132,187L1132,286 L1091,286 " fill="none" stroke="#000000" style="stroke-width: 2px; stroke-linejoin: round; marker-end: url(#markerSihwghe869);"></path></g><polyline points="1132,187 1132,286 1091,286 " fill="none" stroke="#ffffff" style="stroke-opacity: 0; stroke-width: 15px;" class="djs-hit"></polyline><rect x="1085" y="181" width="53" height="111" fill="none" class="djs-outline"></rect></g></g><g class="djs-group"><g data-element-id="SequenceFlow_05at2kf_label" class="djs-element djs-shape" transform="matrix(1,0,0,1,1080.5,182)" style="display: none;"><g class="djs-visual"><text class=" djs-label" style="font-family: Arial, sans-serif; font-size: 11px;"><tspan x="45" y="0"></tspan></text></g><rect x="0" y="0" width="90" height="20" fill="none" stroke="#ffffff" style="stroke-opacity: 0; stroke-width: 15px;" class="djs-hit"></rect><rect x="-6" y="-6" width="102" height="32" fill="none" class="djs-outline"></rect></g></g><g class="djs-group"><g data-element-id="DataOutputAssociation_0j7vq7q" class="djs-element djs-connection" style="display: block;"><g class="djs-visual"><polyline points="991,286 812,286 " fill="none" stroke="#000000" style="stroke-width: 2px; stroke-dasharray: 1px, 6px; stroke-linecap: round; stroke-linejoin: round; marker-end: url(#markerSihwghe86f);"></polyline></g><polyline points="991,286 812,286 " fill="none" stroke="#ffffff" style="stroke-opacity: 0; stroke-width: 15px;" class="djs-hit"></polyline><rect x="806" y="280" width="191" height="12" fill="none" class="djs-outline"></rect></g></g><g class="djs-group"><g data-element-id="SequenceFlow_0npf422" class="djs-element djs-connection" style="display: block;"><g class="djs-visual"><path d="m  1091,286L1131,286 L1131,314 L1199,314 " fill="none" stroke="#000000" style="stroke-width: 2px; stroke-linejoin: round; marker-end: url(#markerSihwghe869);"></path></g><polyline points="1091,286 1131,286 1131,314 1199,314 " fill="none" stroke="#ffffff" style="stroke-opacity: 0; stroke-width: 15px;" class="djs-hit"></polyline><rect x="1085" y="280" width="120" height="40" fill="none" class="djs-outline"></rect></g></g><g class="djs-group"><g data-element-id="SequenceFlow_0npf422_label" class="djs-element djs-shape" transform="matrix(1,0,0,1,1086,280)" style="display: none;"><g class="djs-visual"><text class=" djs-label" style="font-family: Arial, sans-serif; font-size: 11px;"><tspan x="45" y="0"></tspan></text></g><rect x="0" y="0" width="90" height="20" fill="none" stroke="#ffffff" style="stroke-opacity: 0; stroke-width: 15px;" class="djs-hit"></rect><rect x="-6" y="-6" width="102" height="32" fill="none" class="djs-outline"></rect></g></g><g class="djs-group"><g data-element-id="EndEvent_0ll5cne_label" class="djs-element djs-shape" transform="matrix(1,0,0,1,1171.8311,332.1578)" style="display: none;"><g class="djs-visual"><text class=" djs-label" style="font-family: Arial, sans-serif; font-size: 11px;"><tspan x="45" y="0"></tspan></text></g><rect x="0" y="0" width="90" height="20" fill="none" stroke="#ffffff" style="stroke-opacity: 0; stroke-width: 15px;" class="djs-hit"></rect><rect x="-6" y="-6" width="102" height="32" fill="none" class="djs-outline"></rect></g></g><g class="djs-group"><g data-element-id="DataObjectReference_1vob8v6_label" class="djs-element djs-shape" transform="matrix(1,0,0,1,749.479,310.5509)" style="display: block;"><g class="djs-visual"><text class=" djs-label" style="font-family: Arial, sans-serif; font-size: 11px;"><tspan x="20" y="12">Data to be </tspan><tspan x="19" y="24">processed </tspan></text></g><rect x="0" y="0" width="90" height="20" fill="none" stroke="#ffffff" style="stroke-opacity: 0; stroke-width: 15px;" class="djs-hit"></rect><rect x="-6" y="-6" width="102" height="32" fill="none" class="djs-outline"></rect></g></g></g></g><g class="djs-group" xmlns="http://www.w3.org/2000/svg"><g data-element-id="Participant_0yyjimx" class="djs-element djs-shape" transform="matrix(1,0,0,1,386,786)" style="display: block;"><g class="djs-visual"><rect x="0" y="0" width="876" height="239" rx="0" ry="0" stroke="#000000" fill="#ffffff" style="stroke-width: 2px;"></rect><polyline points="30,0 30,239 " fill="none" stroke="#000000" style="stroke-width: 2px;"></polyline><text class=" djs-label" transform="matrix(0,-1,1,0,0,239)" style="font-family: Arial, sans-serif; font-size: 12px;"><tspan x="85.5" y="18.5">Main Project</tspan></text></g><rect x="0" y="0" width="876" height="239" fill="none" stroke="#ffffff" style="stroke-opacity: 0; stroke-width: 15px;" class="djs-hit"></rect><rect x="-6" y="-6" width="888" height="251" fill="none" class="djs-outline"></rect></g><g class="djs-children"><g class="djs-group"><g data-element-id="StartEvent_11hb4t5" transform="matrix(1,0,0,1,465.327,877.2243)" class="djs-element djs-shape" style="display: block;"><g class="djs-visual"><circle cx="18" cy="18" r="18" stroke="#000000" fill="#ffffff" style="stroke-width: 2px;"></circle></g><rect x="0" y="0" width="36" height="36" fill="none" stroke="#ffffff" style="stroke-opacity: 0; stroke-width: 15px;" class="djs-hit"></rect><rect x="-6" y="-6" width="48" height="48" fill="none" class="djs-outline"></rect></g></g><g class="djs-group"><g data-element-id="Task_0lbrvg2" class="djs-element djs-shape" transform="matrix(1,0,0,1,558.8664,855)" style="display: block;"><g class="djs-visual"><rect x="0" y="0" width="100" height="80" rx="10" ry="10" stroke="#000000" fill="#ffffff" style="stroke-width: 2px;"></rect><text class=" djs-label" style="font-family: Arial, sans-serif; font-size: 12px;"><tspan x="20" y="43.5">User Login</tspan></text></g><rect x="0" y="0" width="100" height="80" fill="none" stroke="#ffffff" style="stroke-opacity: 0; stroke-width: 15px;" class="djs-hit"></rect><rect x="-6" y="-6" width="112" height="92" fill="none" class="djs-outline"></rect></g></g><g class="djs-group"><g data-element-id="Task_0canjhi" class="djs-element djs-shape" transform="matrix(1,0,0,1,727.319,855)" style="display: block;"><g class="djs-visual"><rect x="0" y="0" width="100" height="80" rx="10" ry="10" stroke="#000000" fill="#ffffff" style="stroke-width: 2px;"></rect><text class=" djs-label" style="font-family: Arial, sans-serif; font-size: 12px;"><tspan x="15.5" y="36.5">Send data to </tspan><tspan x="27.5" y="50.5">frontend </tspan></text></g><rect x="0" y="0" width="100" height="80" fill="none" stroke="#ffffff" style="stroke-opacity: 0; stroke-width: 15px;" class="djs-hit"></rect><rect x="-6" y="-6" width="112" height="92" fill="none" class="djs-outline"></rect></g></g><g class="djs-group"><g data-element-id="EndEvent_1e9l3le" transform="matrix(1,0,0,1,954.319,877)" class="djs-element djs-shape" style="display: block;"><g class="djs-visual"><circle cx="18" cy="18" r="18" stroke="#000000" fill="#ffffff" style="stroke-width: 4px;"></circle></g><rect x="0" y="0" width="36" height="36" fill="none" stroke="#ffffff" style="stroke-opacity: 0; stroke-width: 15px;" class="djs-hit"></rect><rect x="-6" y="-6" width="48" height="48" fill="none" class="djs-outline"></rect></g></g><g class="djs-group"><g data-element-id="StartEvent_11hb4t5_label" class="djs-element djs-shape" transform="matrix(1,0,0,1,438.327,913.2243)" style="display: block;"><g class="djs-visual"><text class=" djs-label" style="font-family: Arial, sans-serif; font-size: 11px;"><tspan x="33.5" y="12">Start</tspan></text></g><rect x="0" y="0" width="90" height="20" fill="none" stroke="#ffffff" style="stroke-opacity: 0; stroke-width: 15px;" class="djs-hit"></rect><rect x="-6" y="-6" width="102" height="32" fill="none" class="djs-outline"></rect></g></g><g class="djs-group"><g data-element-id="SequenceFlow_1gag7ro" class="djs-element djs-connection" style="display: block;"><g class="djs-visual"><path d="m  501,895L559,895 " fill="none" stroke="#000000" style="stroke-width: 2px; stroke-linejoin: round; marker-end: url(#markerSihwghe869);"></path></g><polyline points="501,895 559,895 " fill="none" stroke="#ffffff" style="stroke-opacity: 0; stroke-width: 15px;" class="djs-hit"></polyline><rect x="495" y="889" width="70" height="12" fill="none" class="djs-outline"></rect></g></g><g class="djs-group"><g data-element-id="SequenceFlow_1gag7ro_label" class="djs-element djs-shape" transform="matrix(1,0,0,1,485,885)" style="display: none;"><g class="djs-visual"><text class=" djs-label" style="font-family: Arial, sans-serif; font-size: 11px;"><tspan x="45" y="0"></tspan></text></g><rect x="0" y="0" width="90" height="20" fill="none" stroke="#ffffff" style="stroke-opacity: 0; stroke-width: 15px;" class="djs-hit"></rect><rect x="-6" y="-6" width="102" height="32" fill="none" class="djs-outline"></rect></g></g><g class="djs-group"><g data-element-id="SequenceFlow_1sechtt" class="djs-element djs-connection" style="display: block;"><g class="djs-visual"><path d="m  659,895L727,895 " fill="none" stroke="#000000" style="stroke-width: 2px; stroke-linejoin: round; marker-end: url(#markerSihwghe869);"></path></g><polyline points="659,895 727,895 " fill="none" stroke="#ffffff" style="stroke-opacity: 0; stroke-width: 15px;" class="djs-hit"></polyline><rect x="653" y="889" width="80" height="12" fill="none" class="djs-outline"></rect></g></g><g class="djs-group"><g data-element-id="SequenceFlow_1sechtt_label" class="djs-element djs-shape" transform="matrix(1,0,0,1,648,885)" style="display: none;"><g class="djs-visual"><text class=" djs-label" style="font-family: Arial, sans-serif; font-size: 11px;"><tspan x="45" y="0"></tspan></text></g><rect x="0" y="0" width="90" height="20" fill="none" stroke="#ffffff" style="stroke-opacity: 0; stroke-width: 15px;" class="djs-hit"></rect><rect x="-6" y="-6" width="102" height="32" fill="none" class="djs-outline"></rect></g></g><g class="djs-group"><g data-element-id="EndEvent_1e9l3le_label" class="djs-element djs-shape" transform="matrix(1,0,0,1,927.319,913)" style="display: none;"><g class="djs-visual"><text class=" djs-label" style="font-family: Arial, sans-serif; font-size: 11px;"><tspan x="45" y="0"></tspan></text></g><rect x="0" y="0" width="90" height="20" fill="none" stroke="#ffffff" style="stroke-opacity: 0; stroke-width: 15px;" class="djs-hit"></rect><rect x="-6" y="-6" width="102" height="32" fill="none" class="djs-outline"></rect></g></g><g class="djs-group"><g data-element-id="SequenceFlow_03h4fct" class="djs-element djs-connection" style="display: block;"><g class="djs-visual"><path d="m  827,895L954,895 " fill="none" stroke="#000000" style="stroke-width: 2px; stroke-linejoin: round; marker-end: url(#markerSihwghe869);"></path></g><polyline points="827,895 954,895 " fill="none" stroke="#ffffff" style="stroke-opacity: 0; stroke-width: 15px;" class="djs-hit"></polyline><rect x="821" y="889" width="139" height="12" fill="none" class="djs-outline"></rect></g></g><g class="djs-group"><g data-element-id="SequenceFlow_03h4fct_label" class="djs-element djs-shape" transform="matrix(1,0,0,1,845.5,885)" style="display: none;"><g class="djs-visual"><text class=" djs-label" style="font-family: Arial, sans-serif; font-size: 11px;"><tspan x="45" y="0"></tspan></text></g><rect x="0" y="0" width="90" height="20" fill="none" stroke="#ffffff" style="stroke-opacity: 0; stroke-width: 15px;" class="djs-hit"></rect><rect x="-6" y="-6" width="102" height="32" fill="none" class="djs-outline"></rect></g></g></g></g><g class="djs-group" xmlns="http://www.w3.org/2000/svg"><g data-element-id="Participant_1v7noxg" class="djs-element djs-shape hover selected" transform="matrix(1,0,0,1,386,432)" style="display: block;"><g class="djs-visual"><rect x="0" y="0" width="877" height="289" rx="0" ry="0" stroke="#000000" fill="#ffffff" style="stroke-width: 2px;"></rect><polyline points="30,0 30,289 " fill="none" stroke="#000000" style="stroke-width: 2px;"></polyline><text class=" djs-label" transform="matrix(0,-1,1,0,0,289)" style="font-family: Arial, sans-serif; font-size: 12px;"><tspan x="94.5" y="18.5">Analysis algorithm</tspan></text></g><rect x="0" y="0" width="877" height="289" fill="none" stroke="#ffffff" style="stroke-opacity: 0; stroke-width: 15px;" class="djs-hit"></rect><rect x="-6" y="-6" width="889" height="301" fill="none" class="djs-outline"></rect></g><g class="djs-children"><g class="djs-group"><g data-element-id="StartEvent_1" transform="matrix(1,0,0,1,460,556)" class="djs-element djs-shape" style="display: block;"><g class="djs-visual"><circle cx="18" cy="18" r="18" stroke="#000000" fill="#ffffff" style="stroke-width: 2px;"></circle></g><rect x="0" y="0" width="36" height="36" fill="none" stroke="#ffffff" style="stroke-opacity: 0; stroke-width: 15px;" class="djs-hit"></rect><rect x="-6" y="-6" width="48" height="48" fill="none" class="djs-outline"></rect></g></g><g class="djs-group"><g data-element-id="DataObjectReference_1h718d6" transform="matrix(1,0,0,1,773.4159,665.8192)" class="djs-element djs-shape" style="display: block;"><g class="djs-visual"><path d="m 0,0 28.23529411764706,0 7.058823529411765,8.196721311475411 0,40.98360655737705 -35.294117647058826,0 0,-49.18032786885246 28.23529411764706,0 0,8.196721311475411 7.058823529411765,0" fill="#ffffff" stroke="#000000" style="stroke-width: 2px;"></path></g><rect x="0" y="0" width="36" height="50" fill="none" stroke="#ffffff" style="stroke-opacity: 0; stroke-width: 15px;" class="djs-hit"></rect><rect x="-6" y="-6" width="48" height="62" fill="none" class="djs-outline"></rect></g></g><g class="djs-group"><g data-element-id="DataInputAssociation_0tz3emn" class="djs-element djs-connection" style="display: block;"><g class="djs-visual"><polyline points="789,716 780,855 " fill="none" stroke="#000000" style="stroke-width: 2px; stroke-dasharray: 1px, 6px; stroke-linecap: round; stroke-linejoin: round; marker-end: url(#markerSihwghe86f);"></polyline></g><polyline points="789,716 780,855 " fill="none" stroke="#ffffff" style="stroke-opacity: 0; stroke-width: 15px;" class="djs-hit"></polyline><rect x="774" y="710" width="21" height="151" fill="none" class="djs-outline"></rect></g></g><g class="djs-group"><g data-element-id="Task_113e2xq" class="djs-element djs-shape" transform="matrix(1,0,0,1,796.5237,524.7779)" style="display: block;"><g class="djs-visual"><rect x="0" y="0" width="100" height="80" rx="10" ry="10" stroke="#000000" fill="#ffffff" style="stroke-width: 2px;"></rect><text class=" djs-label" style="font-family: Arial, sans-serif; font-size: 12px;"><tspan x="11.5" y="36.5">Run algorithm </tspan><tspan x="29.5" y="50.5">on data </tspan></text></g><rect x="0" y="0" width="100" height="80" fill="none" stroke="#ffffff" style="stroke-opacity: 0; stroke-width: 15px;" class="djs-hit"></rect><rect x="-6" y="-6" width="112" height="92" fill="none" class="djs-outline"></rect></g></g><g class="djs-group"><g data-element-id="IntermediateCatchEvent_0qebzxq" transform="matrix(1,0,0,1,962.9102,547)" class="djs-element djs-shape" style="display: block;"><g class="djs-visual"><circle cx="18" cy="18" r="18" stroke="#000000" fill="#ffffff" style="stroke-width: 1px;"></circle><circle cx="18" cy="18" r="15" stroke="#000000" fill="none" style="stroke-width: 1px;"></circle><circle cx="18" cy="18" r="11" stroke="#000000" fill="#ffffff" style="stroke-width: 2px;"></circle><path d="M 18,18 l 2.25,-7.5 m -2.25,7.5 l 5.25,1.5 " fill="none" stroke="#000000" style="stroke-width: 2px; stroke-linecap: square;"></path><path d="M 18,18 m 0,7.5 l -0,2.25 " fill="none" stroke="#000000" transform="matrix(1,0,0,1,0,0)" style="stroke-width: 1px; stroke-linecap: square;"></path><path d="M 18,18 m 0,7.5 l -0,2.25 " fill="none" stroke="#000000" transform="matrix(0.866,0.5,-0.5,0.866,11.4115,-6.5885)" style="stroke-width: 1px; stroke-linecap: square;"></path><path d="M 18,18 m 0,7.5 l -0,2.25 " fill="none" stroke="#000000" transform="matrix(0.5,0.866,-0.866,0.5,24.5885,-6.5885)" style="stroke-width: 1px; stroke-linecap: square;"></path><path d="M 18,18 m 0,7.5 l -0,2.25 " fill="none" stroke="#000000" transform="matrix(0,1,-1,0,36,0)" style="stroke-width: 1px; stroke-linecap: square;"></path><path d="M 18,18 m 0,7.5 l -0,2.25 " fill="none" stroke="#000000" transform="matrix(-0.5,0.866,-0.866,-0.5,42.5885,11.4115)" style="stroke-width: 1px; stroke-linecap: square;"></path><path d="M 18,18 m 0,7.5 l -0,2.25 " fill="none" stroke="#000000" transform="matrix(-0.866,0.5,-0.5,-0.866,42.5885,24.5885)" style="stroke-width: 1px; stroke-linecap: square;"></path><path d="M 18,18 m 0,7.5 l -0,2.25 " fill="none" stroke="#000000" transform="matrix(-1,0,0,-1,36,36)" style="stroke-width: 1px; stroke-linecap: square;"></path><path d="M 18,18 m 0,7.5 l -0,2.25 " fill="none" stroke="#000000" transform="matrix(-0.866,-0.5,0.5,-0.866,24.5885,42.5885)" style="stroke-width: 1px; stroke-linecap: square;"></path><path d="M 18,18 m 0,7.5 l -0,2.25 " fill="none" stroke="#000000" transform="matrix(-0.5,-0.866,0.866,-0.5,11.4115,42.5885)" style="stroke-width: 1px; stroke-linecap: square;"></path><path d="M 18,18 m 0,7.5 l -0,2.25 " fill="none" stroke="#000000" transform="matrix(0,-1,1,0,0,36)" style="stroke-width: 1px; stroke-linecap: square;"></path><path d="M 18,18 m 0,7.5 l -0,2.25 " fill="none" stroke="#000000" transform="matrix(0.5,-0.866,0.866,0.5,-6.5885,24.5885)" style="stroke-width: 1px; stroke-linecap: square;"></path><path d="M 18,18 m 0,7.5 l -0,2.25 " fill="none" stroke="#000000" transform="matrix(0.866,-0.5,0.5,0.866,-6.5885,11.4115)" style="stroke-width: 1px; stroke-linecap: square;"></path></g><rect x="0" y="0" width="36" height="36" fill="none" stroke="#ffffff" style="stroke-opacity: 0; stroke-width: 15px;" class="djs-hit"></rect><rect x="-6" y="-6" width="48" height="48" fill="none" class="djs-outline"></rect></g></g><g class="djs-group"><g data-element-id="DataOutputAssociation_0b512m9" class="djs-element djs-connection" style="display: block;"><g class="djs-visual"><polyline points="973,581 939,645 809,685 " fill="none" stroke="#000000" style="stroke-width: 2px; stroke-dasharray: 1px, 6px; stroke-linecap: round; stroke-linejoin: round; marker-end: url(#markerSihwghe86f);"></polyline></g><polyline points="973,581 939,645 809,685 " fill="none" stroke="#ffffff" style="stroke-opacity: 0; stroke-width: 15px;" class="djs-hit"></polyline><rect x="803" y="575" width="176" height="116" fill="none" class="djs-outline"></rect></g></g><g class="djs-group"><g data-element-id="EndEvent_1ulpzvp" transform="matrix(1,0,0,1,1086,547)" class="djs-element djs-shape" style="display: block;"><g class="djs-visual"><circle cx="18" cy="18" r="18" stroke="#000000" fill="#ffffff" style="stroke-width: 4px;"></circle></g><rect x="0" y="0" width="36" height="36" fill="none" stroke="#ffffff" style="stroke-opacity: 0; stroke-width: 15px;" class="djs-hit"></rect><rect x="-6" y="-6" width="48" height="48" fill="none" class="djs-outline"></rect></g></g><g class="djs-group"><g data-element-id="Task_1ax5dbr" class="djs-element djs-shape" transform="matrix(1,0,0,1,615,534)" style="display: block;"><g class="djs-visual"><rect x="0" y="0" width="100" height="80" rx="10" ry="10" stroke="#000000" fill="#ffffff" style="stroke-width: 2px;"></rect><text class=" djs-label" style="font-family: Arial, sans-serif; font-size: 12px;"><tspan x="14.5" y="43.5">Process data</tspan></text></g><rect x="0" y="0" width="100" height="80" fill="none" stroke="#ffffff" style="stroke-opacity: 0; stroke-width: 15px;" class="djs-hit"></rect><rect x="-6" y="-6" width="112" height="92" fill="none" class="djs-outline"></rect></g></g><g class="djs-group"><g data-element-id="SequenceFlow_0mwgri6" class="djs-element djs-connection" style="display: block;"><g class="djs-visual"><path d="m  496,574L551,574 L551,574 L615,574 " fill="none" stroke="#000000" style="stroke-width: 2px; stroke-linejoin: round; marker-end: url(#markerSihwghe869);"></path></g><polyline points="496,574 551,574 551,574 615,574 " fill="none" stroke="#ffffff" style="stroke-opacity: 0; stroke-width: 15px;" class="djs-hit"></polyline><rect x="490" y="568" width="131" height="12" fill="none" class="djs-outline"></rect></g></g><g class="djs-group"><g data-element-id="SequenceFlow_0wk1yxz" class="djs-element djs-connection" style="display: block;"><g class="djs-visual"><path d="m  999,565L1037,565 L1037,565 L1086,565 " fill="none" stroke="#000000" style="stroke-width: 2px; stroke-linejoin: round; marker-end: url(#markerSihwghe869);"></path></g><polyline points="999,565 1037,565 1037,565 1086,565 " fill="none" stroke="#ffffff" style="stroke-opacity: 0; stroke-width: 15px;" class="djs-hit"></polyline><rect x="993" y="559" width="99" height="12" fill="none" class="djs-outline"></rect></g></g><g class="djs-group"><g data-element-id="SequenceFlow_066bh1n" class="djs-element djs-connection" style="display: block;"><g class="djs-visual"><path d="m  897,565L927,565 L927,565 L963,565 " fill="none" stroke="#000000" style="stroke-width: 2px; stroke-linejoin: round; marker-end: url(#markerSihwghe869);"></path></g><polyline points="897,565 927,565 927,565 963,565 " fill="none" stroke="#ffffff" style="stroke-opacity: 0; stroke-width: 15px;" class="djs-hit"></polyline><rect x="891" y="559" width="78" height="12" fill="none" class="djs-outline"></rect></g></g><g class="djs-group"><g data-element-id="SequenceFlow_1fsz8gi" class="djs-element djs-connection" style="display: block;"><g class="djs-visual"><path d="m  715,574L756,574 L756,565 L797,565 " fill="none" stroke="#000000" style="stroke-width: 2px; stroke-linejoin: round; marker-end: url(#markerSihwghe869);"></path></g><polyline points="715,574 756,574 756,565 797,565 " fill="none" stroke="#ffffff" style="stroke-opacity: 0; stroke-width: 15px;" class="djs-hit"></polyline><rect x="709" y="559" width="94" height="21" fill="none" class="djs-outline"></rect></g></g><g class="djs-group"><g data-element-id="SequenceFlow_0mwgri6_label" class="djs-element djs-shape" transform="matrix(1,0,0,1,570,572.5)" style="display: none;"><g class="djs-visual"><text class=" djs-label" style="font-family: Arial, sans-serif; font-size: 11px;"><tspan x="45" y="0"></tspan></text></g><rect x="0" y="0" width="90" height="20" fill="none" stroke="#ffffff" style="stroke-opacity: 0; stroke-width: 15px;" class="djs-hit"></rect><rect x="-6" y="-6" width="102" height="32" fill="none" class="djs-outline"></rect></g></g><g class="djs-group"><g data-element-id="SequenceFlow_1fsz8gi_label" class="djs-element djs-shape" transform="matrix(1,0,0,1,757,564)" style="display: none;"><g class="djs-visual"><text class=" djs-label" style="font-family: Arial, sans-serif; font-size: 11px;"><tspan x="45" y="0"></tspan></text></g><rect x="0" y="0" width="90" height="20" fill="none" stroke="#ffffff" style="stroke-opacity: 0; stroke-width: 15px;" class="djs-hit"></rect><rect x="-6" y="-6" width="102" height="32" fill="none" class="djs-outline"></rect></g></g><g class="djs-group"><g data-element-id="StartEvent_1_label" class="djs-element djs-shape" transform="matrix(1,0,0,1,433,592)" style="display: block;"><g class="djs-visual"><text class=" djs-label" style="font-family: Arial, sans-serif; font-size: 11px;"><tspan x="33.5" y="12">Start</tspan></text></g><rect x="0" y="0" width="90" height="20" fill="none" stroke="#ffffff" style="stroke-opacity: 0; stroke-width: 15px;" class="djs-hit"></rect><rect x="-6" y="-6" width="102" height="32" fill="none" class="djs-outline"></rect></g></g><g class="djs-group"><g data-element-id="SequenceFlow_0wk1yxz_label" class="djs-element djs-shape" transform="matrix(1,0,0,1,921,537)" style="display: none;"><g class="djs-visual"><text class=" djs-label" style="font-family: Arial, sans-serif; font-size: 11px;"><tspan x="45" y="0"></tspan></text></g><rect x="0" y="0" width="90" height="20" fill="none" stroke="#ffffff" style="stroke-opacity: 0; stroke-width: 15px;" class="djs-hit"></rect><rect x="-6" y="-6" width="102" height="32" fill="none" class="djs-outline"></rect></g></g><g class="djs-group"><g data-element-id="SequenceFlow_066bh1n_label" class="djs-element djs-shape" transform="matrix(1,0,0,1,891.5,566.5)" style="display: none;"><g class="djs-visual"><text class=" djs-label" style="font-family: Arial, sans-serif; font-size: 11px;"><tspan x="45" y="0"></tspan></text></g><rect x="0" y="0" width="90" height="20" fill="none" stroke="#ffffff" style="stroke-opacity: 0; stroke-width: 15px;" class="djs-hit"></rect><rect x="-6" y="-6" width="102" height="32" fill="none" class="djs-outline"></rect></g></g><g class="djs-group"><g data-element-id="DataObjectReference_1h718d6_label" class="djs-element djs-shape" transform="matrix(1,0,0,1,746.4159,715.8192)" style="display: block;"><g class="djs-visual"><text class=" djs-label" style="font-family: Arial, sans-serif; font-size: 11px;"><tspan x="6.5" y="12">Processed data</tspan></text></g><rect x="0" y="0" width="90" height="20" fill="none" stroke="#ffffff" style="stroke-opacity: 0; stroke-width: 15px;" class="djs-hit"></rect><rect x="-6" y="-6" width="102" height="32" fill="none" class="djs-outline"></rect></g></g><g class="djs-group"><g data-element-id="IntermediateCatchEvent_0qebzxq_label" class="djs-element djs-shape" transform="matrix(1,0,0,1,935.9102,583)" style="display: none;"><g class="djs-visual"><text class=" djs-label" style="font-family: Arial, sans-serif; font-size: 11px;"><tspan x="45" y="0"></tspan></text></g><rect x="0" y="0" width="90" height="20" fill="none" stroke="#ffffff" style="stroke-opacity: 0; stroke-width: 15px;" class="djs-hit"></rect><rect x="-6" y="-6" width="102" height="32" fill="none" class="djs-outline"></rect></g></g><g class="djs-group"><g data-element-id="EndEvent_1ulpzvp_label" class="djs-element djs-shape" transform="matrix(1,0,0,1,1059,583)" style="display: none;"><g class="djs-visual"><text class=" djs-label" style="font-family: Arial, sans-serif; font-size: 11px;"><tspan x="45" y="0"></tspan></text></g><rect x="0" y="0" width="90" height="20" fill="none" stroke="#ffffff" style="stroke-opacity: 0; stroke-width: 15px;" class="djs-hit"></rect><rect x="-6" y="-6" width="102" height="32" fill="none" class="djs-outline"></rect></g></g></g></g></svg>